<svg width="143" height="15" viewBox="0 0 143 15" fill="none" xmlns="http://www.w3.org/2000/svg">
<path d="M48.4074 0.0225496C44.272 0.309772 41.2252 3.43176 41.2252 7.37794C41.2252 10.5749 43.1254 13.2535 46.1851 14.3649C47.628 14.8957 49.7923 14.9644 51.3254 14.5335C52.3174 14.2526 53.0002 13.9279 53.7474 13.3597L54.1081 13.0849L53.0968 11.9298L52.079 10.7684L51.8858 10.8933C51.4607 11.1618 50.8036 11.4553 50.3334 11.5801C49.6184 11.7675 48.3688 11.73 47.6795 11.4927C46.9839 11.2492 46.5265 10.9745 46.0241 10.4812C45.2125 9.69446 44.826 8.68918 44.826 7.39043C44.826 6.12915 45.1931 5.18007 45.9919 4.38708C46.9259 3.46922 47.9759 3.09458 49.4767 3.16327C50.2948 3.19449 50.8423 3.34434 51.5702 3.73147L51.9695 3.95001L52.9744 2.85107C53.5284 2.2454 53.9793 1.7334 53.9793 1.70842C53.9793 1.61476 53.2321 1.12149 52.6652 0.828021C51.3898 0.184893 49.9727 -0.0835981 48.4074 0.0225496Z" fill="white"/>
<path d="M18.036 1.2883V2.57658L19.6495 2.56513L21.2567 2.54796V1.2883V0.028636L19.6495 0.0114589L18.036 7.39098e-06V1.2883Z" fill="white"/>
<path d="M36.0869 0.0744419C36.0745 0.114522 36.0682 0.687094 36.0745 1.34555L36.0931 2.54796L37.696 2.56513L39.2927 2.57658V1.2883V7.39098e-06H37.7085C36.4783 7.39098e-06 36.1117 0.0171845 36.0869 0.0744419Z" fill="white"/>
<path d="M114.658 1.2883V2.57658L116.271 2.56513L117.878 2.54796V1.2883V0.028636L116.271 0.0114589L114.658 7.39098e-06V1.2883Z" fill="white"/>
<path d="M0 7.40765V14.8153H1.70737H3.41474L3.42716 11.3263L3.44578 7.83095L4.464 10.3451C5.02277 11.7304 5.66226 13.3017 5.88577 13.8404L6.28312 14.8153L7.7111 14.8025L9.13909 14.7832L10.5795 11.2814L12.0137 7.77322L12.0323 11.2943L12.0447 14.8153H13.7521H15.4595V7.40765V-6.67572e-06H13.8328H12.1999L9.97104 5.13725L7.73594 10.2745L7.51243 9.77425C7.38826 9.49206 6.38246 7.18318 5.27733 4.63699L3.25952 0.00640678L1.63287 -6.67572e-06H0V7.40765Z" fill="white"/>
<path d="M60.2718 3.95833C58.8443 4.19931 57.494 4.9408 56.6324 5.94799C55.3335 7.46187 55.0313 9.66779 55.8544 11.6204C56.3366 12.7635 57.449 13.8016 58.78 14.3577C59.7317 14.747 60.1046 14.8211 61.2363 14.815C62.1301 14.815 62.2909 14.7964 62.7988 14.6481C64.9465 14.0117 66.3354 12.6832 66.8691 10.7368C67.0427 10.1003 67.0298 8.76565 66.8369 8.02416C66.2968 5.90474 64.4771 4.34761 62.0787 3.95215C61.3521 3.83475 60.9984 3.83475 60.2718 3.95833ZM61.6607 6.76363C62.7603 6.95518 63.5512 7.78936 63.7505 8.96956C63.9562 10.1621 63.3711 11.2867 62.278 11.781C61.8858 11.9602 61.7957 11.9788 61.2042 11.9788C60.6383 11.9788 60.5162 11.9602 60.1882 11.8119C59.1208 11.33 58.6257 10.4773 58.6772 9.20436C58.6965 8.66061 58.7286 8.52467 58.9022 8.16628C59.2623 7.43097 59.8796 6.94282 60.6576 6.78217C61.1142 6.6833 61.2042 6.6833 61.6607 6.76363Z" fill="white"/>
<path d="M124.594 3.93946C122.304 4.33565 120.531 5.8709 119.957 7.96949C119.762 8.66902 119.762 9.96284 119.957 10.749C120.456 12.7486 122.089 14.2529 124.272 14.7172C125.149 14.9029 126.631 14.8162 127.445 14.5315C127.861 14.3891 128.473 14.0795 128.788 13.8505C129.381 13.4233 130.208 12.4514 130.081 12.3276C130.012 12.2657 127.716 11.2133 127.647 11.2133C127.621 11.2133 127.464 11.3124 127.3 11.4424C126.48 12.0552 125.363 12.1729 124.417 11.7519C123.023 11.1267 122.544 9.17045 123.439 7.80235C123.881 7.12139 124.619 6.74377 125.515 6.73139C126.164 6.72519 126.637 6.8552 127.066 7.15853C127.237 7.27615 127.432 7.41853 127.508 7.46806C127.634 7.55473 127.722 7.52377 128.864 6.99139C129.539 6.67567 130.1 6.41567 130.113 6.40329C130.176 6.35995 129.495 5.5428 129.072 5.1528C127.987 4.15613 126.171 3.66707 124.594 3.93946Z" fill="white"/>
<path d="M136.074 3.93314C134.215 4.18549 132.586 5.3734 131.874 6.99215C131.047 8.87556 131.336 11.3437 132.573 12.8763C133.997 14.6427 136.78 15.3383 138.672 14.3904C138.922 14.2735 139.242 14.0519 139.396 13.9042L139.665 13.6333V14.1319V14.6304H141.333H143V9.33718V4.04393H141.333H139.665V4.52402V5.01026L139.396 4.77022C138.838 4.27166 137.607 3.84697 136.799 3.86544C136.632 3.87159 136.305 3.90237 136.074 3.93314ZM138.191 6.85059C139.114 7.13987 139.71 7.9831 139.774 9.1033C139.864 10.4635 139.242 11.516 138.152 11.8607C137.537 12.0577 136.703 12.0146 136.132 11.7561C135.113 11.2945 134.619 10.4143 134.677 9.15869C134.715 8.40163 134.882 7.97694 135.311 7.52148C135.67 7.14602 136.248 6.83828 136.754 6.75211C137.152 6.6844 137.819 6.72749 138.191 6.85059Z" fill="white"/>
<path d="M29.0509 3.95463C28.1942 4.17512 27.4019 4.69799 26.8866 5.38466L26.6096 5.75004L26.5903 4.88068L26.571 4.01132H24.8962H23.2214L23.2021 9.41017L23.1892 14.8153H24.8962H26.6032V11.7096V8.61011L26.8479 8.20692C27.1958 7.62105 27.6725 7.16747 28.1942 6.92179C28.5807 6.74539 28.6966 6.7202 29.1797 6.7202C29.8497 6.7202 30.1524 6.85249 30.4423 7.26827C30.7708 7.74075 30.7901 7.98013 30.7901 11.5521V14.8153H32.4649H34.1397V11.3568C34.1397 8.53451 34.1203 7.80374 34.043 7.35017C33.7274 5.57995 32.5937 4.32001 30.9834 3.95463C30.4616 3.83493 29.5211 3.83493 29.0509 3.95463Z" fill="white"/>
<path d="M74.4338 3.99228C74.1839 4.06149 73.834 4.19363 73.6529 4.28802C73.2218 4.52713 72.6345 5.08087 72.4158 5.46471L72.2409 5.78563L72.2222 4.90468L72.2034 4.02374H70.5791H68.9547L68.936 9.41638L68.9235 14.8153H70.5791H72.2284L72.2472 11.6187L72.2659 8.42846L72.4346 8.06979C72.8032 7.27065 73.5029 6.77984 74.3776 6.71691C75.3834 6.6414 76.1581 7.19514 76.508 8.23339C76.6267 8.59836 76.6329 8.79342 76.6579 11.7131L76.6767 14.8153H78.301H79.9192V11.7257V8.63611L80.1191 8.21452C80.2503 7.93136 80.4439 7.66707 80.7376 7.37762C81.0937 7.01895 81.2249 6.93715 81.5748 6.83018C82.0995 6.66657 82.4806 6.66657 82.9867 6.82388C83.5052 6.98119 83.8051 7.23919 84.0363 7.7237C84.3174 8.29632 84.3549 8.82489 84.3549 11.9963V14.8153H85.9793H87.6036V11.9019C87.6036 7.95653 87.5224 7.20772 86.9726 6.06879C86.6165 5.34515 85.9106 4.62152 85.2296 4.28173C84.1487 3.75316 82.5744 3.73428 81.3998 4.23768C80.6938 4.54601 79.8254 5.29482 79.4818 5.89889L79.3131 6.20093L79.107 5.88631C79.0008 5.71012 78.6821 5.35145 78.4072 5.08716C77.3014 4.04261 75.8083 3.63361 74.4338 3.99228Z" fill="white"/>
<path d="M108.023 3.92805C107.127 4.14845 106.242 4.78443 105.727 5.59042L105.57 5.8423V4.91036V3.98473H103.994H102.419V9.40002V14.8153H103.994H105.57V11.7676V8.72625L105.77 8.32326C105.885 8.07768 106.127 7.74395 106.394 7.47318C106.945 6.89387 107.309 6.73015 108.054 6.72386C108.502 6.72386 108.605 6.74275 108.848 6.89387C109.187 7.10167 109.417 7.51096 109.502 8.07768C109.544 8.32326 109.569 9.74634 109.569 11.648V14.8153H111.15H112.725L112.701 11.1757C112.683 7.66209 112.677 7.52356 112.543 7.00721C112.035 4.99222 110.665 3.8462 108.781 3.86509C108.496 3.87138 108.157 3.89657 108.023 3.92805Z" fill="white"/>
<path d="M18.036 9.34008V14.8153H19.6464H21.2567V9.34008V3.86486H19.6464H18.036V9.34008Z" fill="white"/>
<path d="M36.072 9.34008V14.8153H37.6824H39.2927V9.34008V3.86486H37.6824H36.072V9.34008Z" fill="white"/>
<path d="M89.5531 3.95906C89.5349 4.0093 89.5288 5.59818 89.547 7.4885C89.5713 10.6788 89.5834 10.974 89.6987 11.5266C90.1658 13.7184 91.7917 15.0058 93.8119 14.7923C94.1213 14.7609 94.5339 14.673 94.728 14.5976C95.4196 14.3276 96.1295 13.7498 96.5299 13.1281L96.6876 12.8769V13.7749V14.6667H98.265H99.8423V9.26578V3.86486H98.265H96.6876V6.94841V10.032L96.4935 10.415C96.2265 10.93 95.6562 11.5204 95.2012 11.7527C94.9161 11.8972 94.7341 11.9411 94.364 11.96C93.7998 11.9851 93.4661 11.8783 93.181 11.5706C92.7745 11.1373 92.7806 11.1749 92.7442 7.35034L92.7139 3.89626L91.1486 3.87742C89.8018 3.86486 89.5834 3.87742 89.5531 3.95906Z" fill="white"/>
<path d="M114.658 9.34008V14.8153H116.268H117.878V9.34008V3.86486H116.268H114.658V9.34008Z" fill="white"/>
</svg>
