<svg width="88" height="71" viewBox="0 0 88 71" fill="none" xmlns="http://www.w3.org/2000/svg">
<path d="M41.8516 0.13385C34.6614 1.04541 28.7196 6.10617 26.7127 13.0058C26.2228 14.656 25.8909 17.6893 26.0332 19.1981C26.6337 25.7205 30.2683 31.0485 36.1311 33.9875L38.0116 34.9305L40.9193 42.7888C42.5153 47.1109 43.8902 50.7729 43.9534 50.9457C44.0482 51.1658 44.2536 50.7414 44.8225 49.2169C45.2176 48.101 46.5766 44.4076 47.825 41.0128L50.1006 34.8362L51.3016 34.3175C53.514 33.3588 55.2681 32.1015 57.196 30.1055C58.476 28.7853 59.3293 27.5751 60.1827 25.8934C61.4943 23.3159 62 21.0841 62 17.9251C62 13.3673 60.6568 9.73672 57.6859 6.24762C53.8774 1.75267 47.746 -0.604832 41.8516 0.13385ZM47.1455 10.6797V9.86245H48.4097H49.6739V12.0156V14.1845L51.3648 15.8662L53.0715 17.5636H51.9179H50.7801V21.6499V25.7362H47.9356H45.0912V23.3002V20.8641H43.7479H42.4047V23.3002V25.7362H39.5602H36.7158V21.6499V17.5636H35.5938H34.4718L39.1178 12.8643L43.7479 8.16505L45.4546 9.83102L47.1455 11.5127V10.6797Z" fill="#FF6600"/>
<path d="M7.02949 63.23C3.28042 67.205 0.122502 70.58 0.0136077 70.73C-0.188624 70.985 1.30478 71 43.929 71C73.0659 71 88.0466 70.955 87.9999 70.85C87.9843 70.775 84.842 67.4 81.0307 63.35L74.1237 56H43.9912H13.8587L7.02949 63.23ZM29.6016 62.84C29.5394 63.05 29.415 63.5 29.3061 63.845L29.1194 64.475L20.1434 64.52C9.95407 64.565 10.9341 64.715 12.272 63.23L12.972 62.45H21.3413H29.695L29.6016 62.84ZM53.0605 63.425C53.2161 63.92 53.3405 64.37 53.3405 64.43C53.3405 64.505 49.1403 64.55 44.0067 64.55C38.8732 64.55 34.673 64.505 34.673 64.43C34.673 64.325 35.0619 63.02 35.2175 62.63C35.2641 62.48 37.1153 62.45 44.0379 62.48L52.7805 62.525L53.0605 63.425ZM75.2904 62.735C75.4149 62.9 75.8193 63.365 76.1771 63.785L76.8616 64.55L67.8545 64.52L58.863 64.475L58.5985 63.725C58.1163 62.315 57.214 62.45 66.7033 62.45C74.7926 62.45 75.0882 62.465 75.2904 62.735Z" fill="#FF6600"/>
</svg>
