<svg width="7" height="9" viewBox="0 0 7 9" fill="none" xmlns="http://www.w3.org/2000/svg">
<g clip-path="url(#clip0_58_9)">
<path d="M2.79312 8.17912C3.02038 8.36662 3.25738 8.538 3.5 8.70525C3.74315 8.54022 3.979 8.36467 4.20687 8.17912C4.58675 7.86721 4.94425 7.529 5.27675 7.167C6.04325 6.32887 6.875 5.11387 6.875 3.75C6.875 3.30679 6.7877 2.86792 6.61809 2.45844C6.44848 2.04897 6.19988 1.67691 5.88649 1.36351C5.57309 1.05012 5.20103 0.801516 4.79156 0.631907C4.38208 0.462297 3.94321 0.375 3.5 0.375C3.05679 0.375 2.61792 0.462297 2.20844 0.631907C1.79897 0.801516 1.42691 1.05012 1.11351 1.36351C0.800117 1.67691 0.551516 2.04897 0.381907 2.45844C0.212297 2.86792 0.125 3.30679 0.125 3.75C0.125 5.11387 0.95675 6.3285 1.72325 7.167C2.05573 7.52913 2.41324 7.86709 2.79312 8.17912ZM3.5 4.96875C3.17677 4.96875 2.86677 4.84035 2.63821 4.61179C2.40965 4.38323 2.28125 4.07323 2.28125 3.75C2.28125 3.42677 2.40965 3.11677 2.63821 2.88821C2.86677 2.65965 3.17677 2.53125 3.5 2.53125C3.82323 2.53125 4.13323 2.65965 4.36179 2.88821C4.59035 3.11677 4.71875 3.42677 4.71875 3.75C4.71875 4.07323 4.59035 4.38323 4.36179 4.61179C4.13323 4.84035 3.82323 4.96875 3.5 4.96875Z" fill="#FF6600"/>
</g>
<defs>
<clipPath id="clip0_58_9">
<rect width="7" height="9" fill="white"/>
</clipPath>
</defs>
</svg>
