<svg width="7" height="7" viewBox="0 0 7 7" fill="none" xmlns="http://www.w3.org/2000/svg">
<path d="M5.25006 0.468962C5.77796 0.773762 6.21711 1.21115 6.52402 1.73782C6.83093 2.26449 6.99496 2.86218 6.99989 3.47173C7.00481 4.08128 6.85045 4.68155 6.55209 5.21311C6.25373 5.74467 5.82171 6.18909 5.2988 6.50237C4.77589 6.81566 4.18023 6.98695 3.57078 6.99928C2.96133 7.01162 2.35922 6.86457 1.82407 6.5727C1.28891 6.28082 0.839265 5.85425 0.51964 5.33519C0.200014 4.81614 0.0214935 4.22261 0.00175006 3.61336L0 3.49996L0.00175006 3.38656C0.0213514 2.78211 0.197244 2.19305 0.51228 1.67681C0.827316 1.16057 1.27074 0.73477 1.79933 0.440921C2.32792 0.147072 2.92364 -0.00479877 3.5284 0.000115586C4.13315 0.00502995 4.72632 0.166562 5.25006 0.468962ZM3.50004 1.39996C3.41432 1.39997 3.33157 1.43145 3.26751 1.48841C3.20345 1.54538 3.16252 1.62387 3.15249 1.70901L3.15004 1.74996V3.49996L3.15319 3.54581C3.16117 3.60654 3.18494 3.6641 3.22214 3.71276L3.25259 3.74776L4.3026 4.79776L4.3355 4.82646C4.39688 4.87408 4.47237 4.89993 4.55006 4.89993C4.62775 4.89993 4.70323 4.87408 4.76461 4.82646L4.79751 4.79741L4.82656 4.76451C4.87418 4.70313 4.90003 4.62765 4.90003 4.54996C4.90003 4.47227 4.87418 4.39679 4.82656 4.33541L4.79751 4.30251L3.85005 3.35471V1.74996L3.8476 1.70901C3.83757 1.62387 3.79664 1.54538 3.73258 1.48841C3.66851 1.43145 3.58577 1.39997 3.50004 1.39996Z" fill="#777777"/>
</svg>
