<svg width="14" height="14" viewBox="0 0 14 14" fill="none" xmlns="http://www.w3.org/2000/svg">
<path fill-rule="evenodd" clip-rule="evenodd" d="M1.64974 0.446419C1.80283 0.29354 1.98667 0.174946 2.18907 0.0984948C2.39146 0.022044 2.60779 -0.0105171 2.82372 0.0029692C3.03965 0.0164555 3.25025 0.0756813 3.44156 0.176722C3.63287 0.277762 3.80053 0.41831 3.93341 0.589051L5.50399 2.60689C5.79186 2.97704 5.89335 3.45918 5.77961 3.9142L5.301 5.83054C5.27642 5.92981 5.27785 6.03373 5.30513 6.13228C5.33241 6.23084 5.38462 6.3207 5.45674 6.39319L7.60655 8.54317C7.67913 8.61543 7.76913 8.66774 7.86784 8.69503C7.96656 8.72232 8.07065 8.72366 8.17003 8.69892L10.0853 8.22028C10.3099 8.16446 10.5442 8.16026 10.7706 8.208C10.997 8.25574 11.2097 8.35418 11.3926 8.49591L13.4102 10.0657C14.1356 10.6301 14.2021 11.7021 13.5529 12.3505L12.6481 13.2553C12.0007 13.9028 11.0329 14.1872 10.1308 13.8695C7.82151 13.058 5.72495 11.736 3.99729 10.0019C2.26342 8.27431 0.94149 6.17791 0.129908 3.8687C-0.186832 2.96741 0.097534 1.99874 0.745014 1.35121L1.64974 0.446419Z" fill="#CDCDCD"/>
</svg>
