<svg width="1105" height="215" viewBox="0 0 1105 215" fill="none" xmlns="http://www.w3.org/2000/svg">
<path d="M123.496 28.7017C107.6 30.7293 94.4647 41.9862 90.0279 57.3334C88.9449 61.0041 88.2113 67.7513 88.5257 71.1074C89.8532 85.6155 97.8883 97.4667 110.849 104.004L115.007 106.102L121.435 123.581C124.963 133.195 128.002 141.341 128.142 141.725C128.352 142.215 128.806 141.271 130.064 137.88C130.937 135.398 133.941 127.182 136.701 119.631L141.732 105.892L144.387 104.738C149.278 102.606 153.156 99.809 157.418 95.3691C160.248 92.4326 162.134 89.7407 164.021 86C166.92 80.2667 168.038 75.3025 168.038 68.2757C168.038 58.1374 165.069 50.0618 158.501 42.3009C150.081 32.3025 136.527 27.0586 123.496 28.7017ZM135.199 52.1594V50.3415H137.994H140.789V55.1309V59.9553L144.527 63.696L148.3 67.4716H145.75H143.234V76.561V85.6504H136.946H130.658V80.2317V74.813H127.688H124.719V80.2317V85.6504H118.43H112.142V76.561V67.4716H109.661H107.181L117.452 57.0187L127.688 46.5659L131.461 50.2716L135.199 54.0122V52.1594Z" fill="white"/>
<path d="M383.239 76.0366V83.9025L392.252 83.8325L401.231 83.7277V76.0366V68.3456L392.252 68.2407L383.239 68.1708V76.0366Z" fill="white"/>
<path d="M483.643 68.6252C483.573 68.8699 483.538 72.3659 483.573 76.3862L483.678 83.7277L492.691 83.8325L501.669 83.9025V76.0366V68.1708H492.761C485.844 68.1708 483.782 68.2756 483.643 68.6252Z" fill="white"/>
<path d="M920.193 76.0366V83.9025L929.206 83.8325L938.184 83.7277V76.0366V68.3456L929.206 68.2407L920.193 68.1708V76.0366Z" fill="white"/>
<path d="M551.801 68.1707C529.373 69.7789 512.849 87.2585 512.849 109.353C512.849 127.252 523.154 142.25 539.749 148.472C547.574 151.444 559.312 151.828 567.627 149.416C573.007 147.843 576.71 146.025 580.763 142.844L582.719 141.306L577.234 134.838L571.714 128.336L570.666 129.035C568.361 130.538 564.797 132.181 562.247 132.88C558.369 133.929 551.592 133.72 547.854 132.391C544.081 131.028 541.6 129.489 538.875 126.728C534.473 122.323 532.377 116.694 532.377 109.423C532.377 102.361 534.369 97.0472 538.701 92.6073C543.766 87.4683 549.461 85.3707 557.6 85.7553C562.037 85.9301 565.007 86.7691 568.954 88.9366L571.12 90.1602L576.57 84.0073C579.575 80.6163 582.02 77.7496 582.02 77.6098C582.02 77.0854 577.968 74.3236 574.893 72.6805C567.976 69.0797 560.29 67.5764 551.801 68.1707Z" fill="white"/>
<path d="M283.324 109.598V149.976H292.932H302.539L302.609 130.958L302.713 111.905L308.443 125.609C311.587 133.16 315.185 141.725 316.443 144.662L318.679 149.976L326.714 149.906L334.749 149.801L342.854 130.713L350.924 111.59L351.029 130.783L351.099 149.976H360.706H370.313V109.598V69.2195H361.16H351.972L339.43 97.2219L326.854 125.224L325.596 122.498C324.897 120.959 319.238 108.374 313.019 94.4951L301.665 69.2544L292.512 69.2195H283.324V109.598Z" fill="white"/>
<path d="M617.305 89.391C609.549 90.7544 602.213 94.9495 597.531 100.648C590.475 109.213 588.833 121.693 593.304 132.741C595.924 139.208 601.968 145.081 609.2 148.228C614.37 150.43 616.396 150.85 622.545 150.815C627.401 150.815 628.274 150.71 631.034 149.871C642.703 146.27 650.249 138.754 653.148 127.741C654.091 124.141 654.022 116.589 652.974 112.394C650.039 100.403 640.152 91.5934 627.122 89.356C623.174 88.6918 621.252 88.6918 617.305 89.391ZM624.851 105.263C630.825 106.346 635.122 111.066 636.205 117.743C637.323 124.49 634.143 130.853 628.205 133.65C626.073 134.663 625.584 134.768 622.37 134.768C619.296 134.768 618.632 134.663 616.851 133.824C611.051 131.098 608.361 126.273 608.641 119.071C608.746 115.995 608.92 115.226 609.864 113.198C611.82 109.038 615.174 106.276 619.401 105.367C621.881 104.808 622.37 104.808 624.851 105.263Z" fill="white"/>
<path d="M974.831 89.3211C962.15 91.5585 952.333 100.228 949.154 112.08C948.071 116.03 948.071 123.337 949.154 127.776C951.914 139.068 960.962 147.563 973.05 150.185C977.906 151.234 986.115 150.745 990.622 149.137C992.928 148.332 996.317 146.584 998.063 145.291C1001.35 142.879 1005.92 137.39 1005.23 136.691C1004.84 136.341 992.124 130.398 991.74 130.398C991.6 130.398 990.727 130.958 989.819 131.692C985.277 135.153 979.093 135.817 973.853 133.44C966.133 129.909 963.477 118.862 968.438 111.136C970.884 107.29 974.971 105.158 979.932 105.088C983.53 105.053 986.15 105.787 988.526 107.5C989.469 108.164 990.552 108.968 990.971 109.248C991.67 109.737 992.159 109.563 998.483 106.556C1002.22 104.773 1005.33 103.305 1005.4 103.235C1005.75 102.99 1001.98 98.3755 999.635 96.1731C993.627 90.5446 983.565 87.7829 974.831 89.3211Z" fill="white"/>
<path d="M1038.62 89.2163C1028.49 90.6496 1019.62 97.3967 1015.74 106.591C1011.23 117.289 1012.81 131.307 1019.55 140.012C1027.3 150.046 1042.47 153.996 1052.77 148.612C1054.13 147.948 1055.88 146.689 1056.72 145.85L1058.19 144.312V147.144V149.976H1067.27H1076.35V119.911V89.8455H1067.27H1058.19V92.5724V95.3341L1056.72 93.9707C1053.68 91.139 1046.97 88.7268 1042.57 88.8317C1041.66 88.8667 1039.88 89.0415 1038.62 89.2163ZM1050.15 105.787C1055.18 107.43 1058.43 112.22 1058.78 118.582C1059.27 126.308 1055.88 132.286 1049.94 134.244C1046.59 135.363 1042.05 135.118 1038.94 133.65C1033.38 131.028 1030.69 126.028 1031.01 118.897C1031.22 114.597 1032.13 112.185 1034.47 109.598C1036.42 107.465 1039.57 105.717 1042.33 105.228C1044.49 104.843 1048.13 105.088 1050.15 105.787Z" fill="white"/>
<path d="M444.725 89.7057C440.078 90.9292 435.781 93.8309 432.987 97.6414L431.484 99.6691L431.38 94.8447L431.275 90.0203H422.192H413.109L413.004 119.98L412.934 149.976H422.192H431.449V132.741V115.541L432.777 113.303C434.664 110.052 437.249 107.535 440.078 106.172C442.175 105.193 442.803 105.053 445.424 105.053C449.057 105.053 450.699 105.787 452.271 108.094C454.053 110.716 454.157 112.045 454.157 131.867V149.976H463.241H472.324V130.783C472.324 115.121 472.219 111.066 471.8 108.549C470.088 98.7252 463.939 91.7333 455.205 89.7057C452.376 89.0414 447.275 89.0414 444.725 89.7057Z" fill="white"/>
<path d="M694.581 89.8455C693.184 90.2301 691.228 90.9642 690.214 91.4886C687.804 92.8171 684.52 95.8935 683.297 98.026L682.319 99.8089L682.214 94.9146L682.11 90.0203H673.026H663.943L663.838 119.98L663.769 149.976H673.026H682.249L682.354 132.216L682.459 114.492L683.402 112.499C685.463 108.059 689.376 105.332 694.267 104.983C699.892 104.563 704.224 107.64 706.18 113.408C706.844 115.436 706.879 116.519 707.018 132.741L707.123 149.976H716.206H725.254V132.811V115.646L726.372 113.303C727.106 111.73 728.189 110.262 729.831 108.654C731.822 106.661 732.556 106.206 734.512 105.612C737.447 104.703 739.578 104.703 742.408 105.577C745.307 106.451 746.984 107.885 748.277 110.576C749.849 113.758 750.058 116.694 750.058 134.314V149.976H759.142H768.225V133.789C768.225 111.87 767.771 107.71 764.696 101.382C762.705 97.3618 758.757 93.3414 754.949 91.4536C748.906 88.517 740.102 88.4122 733.534 91.2089C729.586 92.9219 724.73 97.0821 722.809 100.438L721.866 102.116L720.713 100.368C720.119 99.3894 718.337 97.3967 716.8 95.9284C710.617 90.1252 702.267 87.8528 694.581 89.8455Z" fill="white"/>
<path d="M881.939 89.5309C876.768 90.7544 871.668 94.2853 868.698 98.7601L867.79 100.159V94.9845V89.8455H858.707H849.624V119.911V149.976H858.707H867.79V133.055V116.17L868.943 113.932C869.607 112.569 871.004 110.716 872.541 109.213C875.72 105.997 877.816 105.088 882.114 105.053C884.699 105.053 885.293 105.158 886.69 105.997C888.646 107.15 889.974 109.423 890.463 112.569C890.708 113.932 890.847 121.833 890.847 132.391V149.976H899.965H909.049L908.909 129.769C908.804 110.262 908.769 109.493 908 106.626C905.066 95.439 897.171 89.0764 886.306 89.1813C884.664 89.2162 882.707 89.3561 881.939 89.5309Z" fill="white"/>
<path d="M383.239 119.911V149.976H392.322H401.405V119.911V89.8455H392.322H383.239V119.911Z" fill="white"/>
<path d="M483.503 119.911V149.976H492.586H501.669V119.911V89.8455H492.586H483.503V119.911Z" fill="white"/>
<path d="M778.496 90.3699C778.391 90.6496 778.356 99.4943 778.461 110.017C778.6 127.776 778.67 129.42 779.334 132.496C782.024 144.697 791.387 151.863 803.02 150.675C804.802 150.5 807.177 150.011 808.295 149.591C812.278 148.088 816.365 144.872 818.671 141.411L819.579 140.012V145.011V149.976H828.663H837.746V119.911V89.8455H828.663H819.579V107.011V124.176L818.462 126.308C816.924 129.175 813.64 132.461 811.02 133.754C809.378 134.559 808.33 134.803 806.199 134.908C802.95 135.048 801.029 134.454 799.387 132.741C797.046 130.328 797.081 130.538 796.872 109.248L796.697 90.0203L787.684 89.9155C779.928 89.8455 778.67 89.9155 778.496 90.3699Z" fill="white"/>
<path d="M920.193 119.911V149.976H929.276H938.359V119.911V89.8455H929.276H920.193V119.911Z" fill="white"/>
<path d="M44.4725 168.574C36.0531 177.838 28.9613 185.704 28.7167 186.054C28.2626 186.648 31.6163 186.683 127.339 186.683C192.772 186.683 226.415 186.578 226.31 186.333C226.275 186.158 219.218 178.293 210.659 168.854L195.148 151.724H127.478H59.809L44.4725 168.574ZM95.1634 167.665C95.0237 168.154 94.7442 169.203 94.4997 170.007L94.0805 171.476L73.9229 171.58C51.0403 171.685 53.2412 172.035 56.2456 168.574L57.8177 166.756H76.6129H95.3731L95.1634 167.665ZM147.846 169.028C148.195 170.182 148.475 171.231 148.475 171.371C148.475 171.545 139.042 171.65 127.513 171.65C115.985 171.65 106.552 171.545 106.552 171.371C106.552 171.126 107.426 168.084 107.775 167.176C107.88 166.826 112.037 166.756 127.583 166.826L147.217 166.931L147.846 169.028ZM197.768 167.42C198.048 167.805 198.956 168.889 199.759 169.867L201.297 171.65L181.069 171.58L160.877 171.476L160.283 169.728C159.2 166.441 157.173 166.756 178.484 166.756C196.65 166.756 197.314 166.791 197.768 167.42Z" fill="white"/>
</svg>
