<svg width="22" height="22" viewBox="0 0 22 22" fill="none" xmlns="http://www.w3.org/2000/svg">
<path d="M20.2889 22L12.5889 14.3C11.9778 14.7889 11.275 15.1759 10.4806 15.4611C9.68611 15.7463 8.84074 15.8889 7.94444 15.8889C5.72407 15.8889 3.84511 15.1197 2.30756 13.5813C0.770001 12.043 0.000815461 10.164 6.46678e-07 7.94444C-0.000814168 5.72489 0.768371 3.84593 2.30756 2.30756C3.84674 0.769185 5.7257 0 7.94444 0C10.1632 0 12.0426 0.769185 13.5826 2.30756C15.1226 3.84593 15.8913 5.72489 15.8889 7.94444C15.8889 8.84074 15.7463 9.68611 15.4611 10.4806C15.1759 11.275 14.7889 11.9778 14.3 12.5889L22 20.2889L20.2889 22ZM7.94444 13.4444C9.47222 13.4444 10.771 12.9099 11.8409 11.8409C12.9107 10.7719 13.4453 9.47304 13.4444 7.94444C13.4436 6.41585 12.9091 5.11744 11.8409 4.04922C10.7727 2.981 9.47385 2.44607 7.94444 2.44444C6.41504 2.44281 5.11663 2.97774 4.04922 4.04922C2.98182 5.1207 2.44689 6.41911 2.44444 7.94444C2.442 9.46978 2.97693 10.7686 4.04922 11.8409C5.12152 12.9132 6.41993 13.4477 7.94444 13.4444Z" fill="#DC5A0C"/>
</svg>
