<svg width="18" height="18" viewBox="0 0 18 18" fill="none" xmlns="http://www.w3.org/2000/svg">
<g clip-path="url(#clip0_5_55)">
<path d="M10.89 1.5C11.6618 1.5 12.4012 1.80675 12.9465 2.352L15.648 5.0535C15.918 5.32351 16.1322 5.64406 16.2783 5.99685C16.4245 6.34965 16.4997 6.72777 16.4997 7.10962C16.4997 7.49148 16.4245 7.86961 16.2783 8.2224C16.1322 8.57519 15.918 8.89574 15.648 9.16575L13.6658 11.148C13.1849 11.6284 12.551 11.9253 11.8741 11.9872C11.1973 12.0492 10.52 11.8722 9.96 11.487L9.88125 11.4285L5.46975 15.8407C5.12832 16.181 4.68663 16.4027 4.20975 16.473L4.04475 16.4932L3.879 16.5H3C2.2395 16.5 1.59975 15.9307 1.50675 15.1327L1.5 15V14.121C1.5 13.593 1.686 13.0815 2.0475 12.651L2.15925 12.5303L2.46975 12.2197C2.61037 12.0791 2.8011 12 3 12H3.75V11.25C3.75002 11.0663 3.81747 10.889 3.93954 10.7517C4.06161 10.6144 4.22981 10.5267 4.41225 10.5052L4.5 10.5H5.25V9.75C5.24999 9.58515 5.30429 9.42489 5.4045 9.294L5.46975 9.219L6.57075 8.11725L6.51375 8.04C6.2143 7.60423 6.03857 7.09544 6.00525 6.56775L6 6.39075C6 5.619 6.30675 4.8795 6.852 4.33425L8.83425 2.352C9.37956 1.80686 10.1189 1.50043 10.89 1.5ZM11.2613 5.25H11.2463C10.8484 5.25 10.4669 5.40804 10.1856 5.68934C9.90429 5.97064 9.74625 6.35218 9.74625 6.75C9.74625 7.14782 9.90429 7.52936 10.1856 7.81066C10.4669 8.09196 10.8484 8.25 11.2463 8.25H11.2613C11.6591 8.25 12.0406 8.09196 12.3219 7.81066C12.6032 7.52936 12.7612 7.14782 12.7612 6.75C12.7612 6.35218 12.6032 5.97064 12.3219 5.68934C12.0406 5.40804 11.6591 5.25 11.2613 5.25Z" fill="#CDCDCD"/>
</g>
<defs>
<clipPath id="clip0_5_55">
<rect width="18" height="18" fill="white"/>
</clipPath>
</defs>
</svg>
