<svg width="16" height="16" viewBox="0 0 16 16" fill="none" xmlns="http://www.w3.org/2000/svg">
<path d="M12.0001 1.07191C13.2068 1.7686 14.2105 2.76833 14.912 3.97215C15.6135 5.17597 15.9885 6.54213 15.9997 7.93538C16.011 9.32864 15.6582 10.7007 14.9762 11.9157C14.2942 13.1307 13.3068 14.1465 12.1115 14.8626C10.9163 15.5787 9.55481 15.9702 8.16178 15.9984C6.76875 16.0266 5.39251 15.6904 4.16929 15.0233C2.94608 14.3562 1.91832 13.3811 1.18775 12.1947C0.457175 11.0083 0.049128 9.65168 0.00400014 8.25911L0 7.99991L0.00400014 7.74071C0.0488032 6.35911 0.450844 5.01268 1.17093 3.83271C1.89101 2.65273 2.90456 1.67948 4.11276 1.00782C5.32097 0.336164 6.6826 -0.0109686 8.0649 0.000264197C9.44721 0.011497 10.803 0.380712 12.0001 1.07191ZM8.0001 3.19991C7.80415 3.19994 7.61502 3.27188 7.46859 3.40209C7.32216 3.53229 7.22861 3.71171 7.20569 3.90631L7.20009 3.99991V7.99991L7.20729 8.10471C7.22553 8.24351 7.27987 8.37509 7.36489 8.48631L7.43449 8.56631L9.83452 10.9663L9.90972 11.0319C10.05 11.1408 10.2226 11.1998 10.4001 11.1998C10.5777 11.1998 10.7502 11.1408 10.8905 11.0319L10.9657 10.9655L11.0321 10.8903C11.141 10.75 11.2001 10.5775 11.2001 10.3999C11.2001 10.2223 11.141 10.0498 11.0321 9.90951L10.9657 9.83431L8.80011 7.66791V3.99991L8.79451 3.90631C8.77158 3.71171 8.67803 3.53229 8.5316 3.40209C8.38517 3.27188 8.19605 3.19994 8.0001 3.19991Z" fill="#777777"/>
</svg>
