<svg width="14" height="14" viewBox="0 0 14 14" fill="none" xmlns="http://www.w3.org/2000/svg">
<path d="M13.7811 0.220301C13.6788 0.118076 13.5492 0.0475853 13.4078 0.0173136C13.2665 -0.012958 13.1193 -0.0017197 12.9842 0.0496757L0.483266 4.78124H0.480766C0.336629 4.83668 0.213118 4.93526 0.127104 5.06351C0.0410898 5.19177 -0.00323491 5.34346 0.000183888 5.49785C0.00360268 5.65224 0.0545983 5.80182 0.146206 5.92614C0.237813 6.05047 0.365566 6.14349 0.512016 6.19249L0.524828 6.19655L4.81545 8.02874C4.89914 8.05414 4.98803 8.05715 5.07324 8.03747C5.15846 8.01778 5.23701 7.97609 5.30108 7.91655L12.1873 1.49999C12.2078 1.47947 12.2322 1.46319 12.259 1.45209C12.2858 1.44098 12.3146 1.43527 12.3436 1.43527C12.3726 1.43527 12.4013 1.44098 12.4281 1.45209C12.455 1.46319 12.4793 1.47947 12.4998 1.49999C12.5203 1.52051 12.5366 1.54487 12.5477 1.57168C12.5588 1.59849 12.5645 1.62722 12.5645 1.65624C12.5645 1.68526 12.5588 1.71399 12.5477 1.7408C12.5366 1.76761 12.5203 1.79197 12.4998 1.81249L6.08295 8.69561C6.02342 8.75968 5.98172 8.83824 5.96204 8.92345C5.94235 9.00866 5.94536 9.09755 5.97077 9.18124L7.80358 13.4744C7.80545 13.4806 7.80733 13.4862 7.80952 13.4922C7.90952 13.7819 8.16264 13.9862 8.46858 14H8.49983C8.65428 14.0009 8.80542 13.9553 8.9336 13.8691C9.06178 13.7829 9.16108 13.6602 9.21858 13.5169L13.9495 1.01936C14.0016 0.884138 14.0135 0.736706 13.9836 0.594898C13.9537 0.453089 13.8834 0.322978 13.7811 0.220301Z" fill="white"/>
</svg>
