<svg width="18" height="18" viewBox="0 0 18 18" fill="none" xmlns="http://www.w3.org/2000/svg">
<path fill-rule="evenodd" clip-rule="evenodd" d="M7.84798 2.46151C7.9822 2.30048 8.14868 2.16938 8.33669 2.07666C8.5247 1.98393 8.73005 1.93164 8.93951 1.92316C9.14896 1.91468 9.35787 1.9502 9.55276 2.02742C9.74764 2.10465 9.92418 2.22186 10.071 2.37151L10.152 2.46151L13.101 6.00001H15.3397C15.4971 5.99967 15.6528 6.03259 15.7966 6.0966C15.9404 6.16062 16.069 6.25428 16.1741 6.37147C16.2792 6.48865 16.3583 6.62671 16.4063 6.7766C16.4543 6.92649 16.4702 7.08483 16.4527 7.24126L16.3837 7.81576L16.3087 8.37076L16.2472 8.78626L16.176 9.23251L16.095 9.70126L16.0035 10.1873L15.9015 10.683C15.8475 10.933 15.7895 11.1828 15.7275 11.4323C15.5615 12.0908 15.353 12.7379 15.1035 13.3695L14.9377 13.7745L14.7772 14.1405L14.6257 14.466L14.5552 14.6115L14.3685 14.979C14.1285 15.4365 13.6755 15.7065 13.1962 15.7455L13.0762 15.75H4.91623C4.65403 15.752 4.39622 15.6827 4.17034 15.5495C3.94446 15.4164 3.75898 15.2244 3.63373 14.994L3.45973 14.6565L3.32473 14.379L3.25348 14.2253L3.10348 13.8885C2.76095 13.0932 2.48305 12.2715 2.27248 11.4315C2.23176 11.2684 2.19276 11.1049 2.15548 10.941L2.04898 10.455L1.95373 9.97951L1.86973 9.51976L1.79473 9.07951L1.72948 8.66401L1.67398 8.27926L1.60648 7.76701L1.55698 7.35001L1.54423 7.23526C1.52872 7.08791 1.54266 6.93895 1.58524 6.79704C1.62783 6.65513 1.69821 6.52311 1.79229 6.40865C1.88636 6.29419 2.00227 6.19959 2.13324 6.13033C2.26422 6.06108 2.40767 6.01856 2.55523 6.00526L2.65723 6.00001H4.89898L7.84798 2.46151ZM7.47073 9.54151C7.41999 9.36455 7.30595 9.21243 7.15031 9.11412C6.99467 9.01581 6.80831 8.97817 6.62672 9.00838C6.44513 9.03858 6.28099 9.13452 6.16555 9.27791C6.05012 9.42131 5.99145 9.60215 6.00073 9.78601L6.01048 9.87301L6.38548 12.123L6.40423 12.2085C6.45496 12.3855 6.56901 12.5376 6.72465 12.6359C6.88029 12.7342 7.06664 12.7718 7.24824 12.7416C7.42983 12.7114 7.59397 12.6155 7.70941 12.4721C7.82484 12.3287 7.88351 12.1479 7.87423 11.964L7.86448 11.877L7.48948 9.62701L7.47073 9.54151ZM11.373 9.01051C11.1917 8.98027 11.0056 9.01764 10.8501 9.11553C10.6946 9.21341 10.5804 9.365 10.5292 9.54151L10.5105 9.62701L10.1355 11.877C10.1042 12.0657 10.1461 12.2592 10.2528 12.418C10.3595 12.5768 10.5228 12.6888 10.7093 12.7311C10.8959 12.7735 11.0915 12.743 11.2563 12.6458C11.4211 12.5487 11.5425 12.3922 11.5957 12.2085L11.6145 12.123L11.9895 9.87301C12.022 9.67689 11.9753 9.47589 11.8597 9.31416C11.7441 9.15243 11.5691 9.04321 11.373 9.01051ZM8.99998 3.42151L6.85123 6.00001H11.1487L8.99998 3.42151Z" fill="#FF6600"/>
</svg>
