<svg width="8" height="9" viewBox="0 0 8 9" fill="none" xmlns="http://www.w3.org/2000/svg">
<path fill-rule="evenodd" clip-rule="evenodd" d="M8 4.5C8 5.56087 7.57857 6.57828 6.82843 7.32843C6.07828 8.07857 5.06087 8.5 4 8.5C2.93913 8.5 1.92172 8.07857 1.17157 7.32843C0.421427 6.57828 0 5.56087 0 4.5C0 3.43913 0.421427 2.42172 1.17157 1.67157C1.92172 0.921427 2.93913 0.5 4 0.5C5.06087 0.5 6.07828 0.921427 6.82843 1.67157C7.57857 2.42172 8 3.43913 8 4.5ZM3.33333 2.5C3.33333 2.32319 3.40357 2.15362 3.5286 2.0286C3.65362 1.90357 3.82319 1.83333 4 1.83333C4.17681 1.83333 4.34638 1.90357 4.4714 2.0286C4.59643 2.15362 4.66667 2.32319 4.66667 2.5V4.5C4.66667 4.67681 4.59643 4.84638 4.4714 4.9714C4.34638 5.09643 4.17681 5.16667 4 5.16667C3.82319 5.16667 3.65362 5.09643 3.5286 4.9714C3.40357 4.84638 3.33333 4.67681 3.33333 4.5V2.5ZM4 5.83333C3.82319 5.83333 3.65362 5.90357 3.5286 6.0286C3.40357 6.15362 3.33333 6.32319 3.33333 6.5C3.33333 6.67681 3.40357 6.84638 3.5286 6.9714C3.65362 7.09643 3.82319 7.16667 4 7.16667C4.17681 7.16667 4.34638 7.09643 4.4714 6.9714C4.59643 6.84638 4.66667 6.67681 4.66667 6.5C4.66667 6.32319 4.59643 6.15362 4.4714 6.0286C4.34638 5.90357 4.17681 5.83333 4 5.83333Z" fill="#FF6600"/>
</svg>
