<svg width="14" height="18" viewBox="0 0 14 18" fill="none" xmlns="http://www.w3.org/2000/svg">
<g clip-path="url(#clip0_51_78)">
<path d="M5.58625 16.3582C6.04075 16.7332 6.51475 17.076 7 17.4105C7.4863 17.0804 7.95799 16.7293 8.41375 16.3582C9.1735 15.7344 9.88851 15.058 10.5535 14.334C12.0865 12.6577 13.75 10.2277 13.75 7.5C13.75 6.61358 13.5754 5.73583 13.2362 4.91689C12.897 4.09794 12.3998 3.35382 11.773 2.72703C11.1462 2.10023 10.4021 1.60303 9.58311 1.26381C8.76417 0.924594 7.88642 0.75 7 0.75C6.11358 0.75 5.23583 0.924594 4.41689 1.26381C3.59794 1.60303 2.85382 2.10023 2.22703 2.72703C1.60023 3.35382 1.10303 4.09794 0.763813 4.91689C0.424594 5.73583 0.25 6.61358 0.25 7.5C0.25 10.2277 1.9135 12.657 3.4465 14.334C4.11146 15.0583 4.82647 15.7342 5.58625 16.3582ZM7 9.9375C6.35353 9.9375 5.73355 9.68069 5.27643 9.22357C4.81931 8.76645 4.5625 8.14646 4.5625 7.5C4.5625 6.85353 4.81931 6.23355 5.27643 5.77643C5.73355 5.31931 6.35353 5.0625 7 5.0625C7.64647 5.0625 8.26645 5.31931 8.72357 5.77643C9.18069 6.23355 9.4375 6.85353 9.4375 7.5C9.4375 8.14646 9.18069 8.76645 8.72357 9.22357C8.26645 9.68069 7.64647 9.9375 7 9.9375Z" fill="#FF6600"/>
</g>
<defs>
<clipPath id="clip0_51_78">
<rect width="14" height="18" fill="white"/>
</clipPath>
</defs>
</svg>
