<svg width="16" height="16" viewBox="0 0 16 16" fill="none" xmlns="http://www.w3.org/2000/svg">
<g clip-path="url(#clip0_52_93)">
<path fill-rule="evenodd" clip-rule="evenodd" d="M7.25 0.285706C6.65326 0.285706 6.08097 0.556623 5.65901 1.03886C5.23705 1.5211 5 2.17515 5 2.85713V3.71428H2.75C2.15326 3.71428 1.58097 3.98519 1.15901 4.46743C0.737053 4.94967 0.5 5.60372 0.5 6.28571V13.1428C0.5 13.8248 0.737053 14.4789 1.15901 14.9611C1.58097 15.4434 2.15326 15.7143 2.75 15.7143H13.25C13.8467 15.7143 14.419 15.4434 14.841 14.9611C15.2629 14.4789 15.5 13.8248 15.5 13.1428V6.28571C15.5 5.60372 15.2629 4.94967 14.841 4.46743C14.419 3.98519 13.8467 3.71428 13.25 3.71428H11V2.85713C11 2.17515 10.7629 1.5211 10.341 1.03886C9.91903 0.556623 9.34674 0.285706 8.75 0.285706H7.25ZM9.5 3.71428H6.5V2.85713C6.5 2.62981 6.57902 2.41179 6.71967 2.25104C6.86032 2.0903 7.05109 1.99999 7.25 1.99999H8.75C8.94891 1.99999 9.13968 2.0903 9.28033 2.25104C9.42098 2.41179 9.5 2.62981 9.5 2.85713V3.71428Z" fill="#FF6600"/>
</g>
<defs>
<clipPath id="clip0_52_93">
<rect width="16" height="16" fill="white"/>
</clipPath>
</defs>
</svg>
