<svg width="378" height="308" viewBox="0 0 378 308" fill="none" xmlns="http://www.w3.org/2000/svg">
<path d="M236.783 160.536C266.337 130.982 266.337 83.0657 236.783 53.5119C207.229 23.9581 159.313 23.9581 129.759 53.5119C100.206 83.0657 100.206 130.982 129.759 160.536C159.313 190.09 207.229 190.09 236.783 160.536Z" fill="#EE9730"/>
<path d="M377.158 233.008L359.767 232.97L334.055 232.913L281.676 232.795C281.676 232.795 281.687 232.79 281.705 232.781L334.313 203.587L377.158 233.008Z" fill="#EDB188"/>
<path d="M377.158 233.008L359.767 232.97C354.628 223.16 339.593 217.616 335.405 214.884C330.179 211.47 334.313 203.587 334.313 203.587L377.158 233.008Z" fill="#EFBE97"/>
<path d="M334.055 232.914L281.676 232.796C281.676 232.796 281.687 232.791 281.705 232.782C282.387 232.474 295.38 226.698 305.367 228.833C314.207 230.722 329.413 229.453 334.055 232.914Z" fill="#E8A577"/>
<path d="M195.454 233.008L159.855 232.931L107.221 232.815L0 232.573C0 232.573 0.0219981 232.563 0.0589981 232.544L107.748 172.784L195.454 233.008Z" fill="#EDB188"/>
<path d="M195.454 233.008L159.855 232.931C149.336 212.849 118.558 201.5 109.985 195.908C99.2869 188.92 107.749 172.783 107.749 172.783L195.454 233.008Z" fill="#EFBE97"/>
<path d="M107.221 232.815L0 232.573C0 232.573 0.0219981 232.563 0.0589981 232.544C1.456 231.914 28.051 220.09 48.495 224.461C66.593 228.327 97.72 225.73 107.221 232.815Z" fill="#E8A577"/>
<path d="M329.966 233.008L305.198 232.954L268.578 232.873L193.978 232.704C193.978 232.704 193.994 232.697 194.019 232.684L268.944 191.106L329.966 233.008Z" fill="#EFBE97"/>
<path d="M329.966 233.008L305.198 232.954C297.879 218.982 276.465 211.086 270.501 207.195C263.058 202.333 268.945 191.106 268.945 191.106L329.966 233.008Z" fill="#F5CDA9"/>
<path d="M268.577 232.874L193.977 232.705C193.977 232.705 193.993 232.698 194.018 232.685C194.99 232.247 213.494 224.02 227.718 227.061C240.31 229.752 261.966 227.944 268.577 232.874Z" fill="#EDB188"/>
<path d="M321.191 171.532C316.038 171.665 311.996 176.031 311.996 181.186V233.157H330.885V180.973C330.885 175.674 326.521 171.395 321.191 171.532Z" fill="#D3573B"/>
<path d="M321.441 171.529C318.48 171.529 316.079 175.757 316.079 180.973V233.157H326.803V180.973C326.803 175.757 324.402 171.529 321.441 171.529Z" fill="#F46640"/>
<path d="M321.441 171.529C320.331 171.529 319.431 175.757 319.431 180.973V233.157H323.451V180.973C323.451 175.757 322.551 171.529 321.441 171.529Z" fill="#F46640"/>
<path d="M317.582 178.575L316.349 179.657L316.099 177.337H316.097L315.847 179.659L314.612 178.575L315.767 180.396H315.768L316.096 180.913V180.909L316.098 180.913L316.429 180.396V180.392L317.582 178.575Z" fill="#F9A42D"/>
<path d="M328.27 178.575L327.037 179.657L326.787 177.337H326.785L326.535 179.659L325.299 178.575L326.455 180.396H326.456L326.783 180.913V180.909L326.786 180.913L327.117 180.396L327.116 180.392L328.27 178.575Z" fill="#F9A42D"/>
<path d="M322.926 182.151L321.693 183.233L321.443 180.913H321.441L321.191 183.235L319.956 182.151L321.111 183.971L321.112 183.972L321.44 184.488V184.485L321.442 184.488L321.773 183.971L321.772 183.968L322.926 182.151Z" fill="#F9A42D"/>
<path d="M322.926 191.055L321.693 192.137L321.443 189.817H321.441L321.191 192.139L319.956 191.055L321.111 192.876L321.112 192.877L321.44 193.393V193.389L321.442 193.393L321.773 192.876L321.772 192.872L322.926 191.055Z" fill="#F9A42D"/>
<path d="M322.926 199.96L321.693 201.042L321.443 198.722H321.441L321.191 201.044L319.956 199.96L321.111 201.78L321.112 201.781L321.44 202.298V202.294L321.442 202.298L321.773 201.78L321.772 201.777L322.926 199.96Z" fill="#F9A42D"/>
<path d="M317.582 186.839L316.349 187.921L316.099 185.601H316.097L315.847 187.923L314.612 186.839L315.767 188.66H315.768L316.096 189.177V189.173L316.098 189.177L316.429 188.66V188.656L317.582 186.839Z" fill="#F9A42D"/>
<path d="M328.27 186.839L327.037 187.921L326.787 185.601H326.785L326.535 187.923L325.299 186.839L326.455 188.66H326.456L326.783 189.177V189.173L326.786 189.177L327.117 188.66L327.116 188.656L328.27 186.839Z" fill="#F9A42D"/>
<path d="M317.582 195.103L316.349 196.185L316.099 193.865H316.097L315.847 196.187L314.612 195.103L315.767 196.923L315.768 196.924L316.096 197.441V197.437L316.098 197.441L316.429 196.923V196.92L317.582 195.103Z" fill="#F9A42D"/>
<path d="M328.27 195.103L327.037 196.185L326.787 193.865H326.785L326.535 196.187L325.299 195.103L326.455 196.923L326.456 196.924L326.783 197.441V197.437L326.786 197.441L327.117 196.923L327.116 196.92L328.27 195.103Z" fill="#F9A42D"/>
<path d="M304.115 185.72V182.385C304.115 180.249 302.516 178.335 300.383 178.223C298.108 178.104 296.227 179.913 296.227 182.161V188.553V189.912C296.227 193.518 299.15 196.441 302.756 196.441H304.115H312.803V188.553H306.949C305.384 188.553 304.115 187.285 304.115 185.72Z" fill="#D3573B"/>
<path d="M302.756 193.693C300.667 193.693 298.975 192 298.975 189.912V182.161C298.975 181.502 299.512 180.965 300.172 180.965C300.852 180.999 301.368 181.648 301.368 182.384V188.399C301.368 190.001 302.667 191.3 304.269 191.3H311.997V193.692L302.756 193.693Z" fill="#F46640"/>
<path d="M304.29 192.532L303.057 193.614L302.807 191.294H302.804L302.554 193.616L301.319 192.532L302.475 194.352V194.353L302.803 194.87V194.866L302.806 194.87L303.136 194.352V194.349L304.29 192.532Z" fill="#F9A42D"/>
<path d="M300.46 186.839L299.227 187.921L298.977 185.601H298.975L298.725 187.923L297.49 186.839L298.645 188.66H298.646L298.974 189.177V189.173L298.976 189.177L299.307 188.66L299.306 188.656L300.46 186.839Z" fill="#F9A42D"/>
<path d="M302.804 181.771L301.572 182.853L301.322 180.533H301.319L301.069 182.855L299.834 181.771L300.99 183.592L301.318 184.109V184.105L301.321 184.109L301.651 183.592V183.588L302.804 181.771Z" fill="#F9A42D"/>
<path d="M310.032 192.532L308.799 193.614L308.549 191.294H308.547L308.296 193.616L307.062 192.532L308.217 194.352L308.218 194.353L308.545 194.87V194.866L308.548 194.87L308.879 194.352L308.878 194.349L310.032 192.532Z" fill="#F9A42D"/>
<path d="M339.573 202.097V198.762C339.573 196.626 341.172 194.712 343.305 194.601C345.58 194.482 347.461 196.291 347.461 198.539V204.931V206.29C347.461 209.896 344.538 212.819 340.932 212.819H339.573H330.885V204.931H336.739C338.304 204.93 339.573 203.662 339.573 202.097Z" fill="#D3573B"/>
<path d="M340.932 210.07C343.02 210.07 344.713 208.377 344.713 206.289V198.538C344.713 197.879 344.176 197.342 343.516 197.342C342.836 197.376 342.32 198.025 342.32 198.761V204.776C342.32 206.378 341.021 207.677 339.419 207.677H330.885V210.07H340.932Z" fill="#F46640"/>
<path d="M339.399 208.909L340.631 209.991L340.881 207.671H340.884L341.134 209.993L342.369 208.909L341.213 210.73L340.885 211.247V211.243L340.882 211.247L340.552 210.73V210.726L339.399 208.909Z" fill="#F9A42D"/>
<path d="M343.228 203.216L344.461 204.298L344.711 201.978H344.713L344.963 204.3L346.199 203.216L345.043 205.037H345.042L344.715 205.554V205.55L344.712 205.554L344.381 205.037L344.382 205.033L343.228 203.216Z" fill="#F9A42D"/>
<path d="M340.884 198.148L342.117 199.23L342.367 196.91H342.369L342.619 199.232L343.854 198.148L342.698 199.969L342.37 200.486V200.482L342.368 200.486L342.037 199.969V199.966L340.884 198.148Z" fill="#F9A42D"/>
<path d="M333.656 208.909L334.889 209.991L335.139 207.671H335.142L335.392 209.993L336.627 208.909L335.471 210.73L335.143 211.247V211.243L335.14 211.247L334.81 210.73V210.726L333.656 208.909Z" fill="#F9A42D"/>
<path d="M317.582 204.52L316.349 205.602L316.099 203.282H316.097L315.847 205.604L314.612 204.52L315.767 206.341H315.768L316.096 206.858V206.854L316.098 206.858L316.429 206.341V206.337L317.582 204.52Z" fill="#F9A42D"/>
<path d="M328.27 204.52L327.037 205.602L326.787 203.282H326.785L326.535 205.604L325.299 204.52L326.455 206.341H326.456L326.783 206.858V206.854L326.786 206.858L327.117 206.341L327.116 206.337L328.27 204.52Z" fill="#F9A42D"/>
<path d="M322.926 208.096L321.693 209.178L321.443 206.858H321.441L321.191 209.18L319.956 208.096L321.111 209.916L321.112 209.917L321.44 210.434V210.43L321.442 210.434L321.773 209.916L321.772 209.913L322.926 208.096Z" fill="#F9A42D"/>
<path d="M322.926 217L321.693 218.083L321.443 215.762H321.441L321.191 218.084L319.956 217L321.111 218.821L321.112 218.822L321.44 219.338V219.334L321.442 219.338L321.773 218.821L321.772 218.818L322.926 217Z" fill="#F9A42D"/>
<path d="M322.926 225.905L321.693 226.987L321.443 224.667H321.441L321.191 226.989L319.956 225.905L321.111 227.725L321.112 227.726L321.44 228.243V228.239L321.442 228.243L321.773 227.725L321.772 227.722L322.926 225.905Z" fill="#F9A42D"/>
<path d="M317.582 212.784L316.349 213.866L316.099 211.546H316.097L315.847 213.868L314.612 212.784L315.767 214.605H315.768L316.096 215.122V215.118L316.098 215.122L316.429 214.605V214.601L317.582 212.784Z" fill="#F9A42D"/>
<path d="M328.27 212.784L327.037 213.866L326.787 211.546H326.785L326.535 213.868L325.299 212.784L326.455 214.605H326.456L326.783 215.122V215.118L326.786 215.122L327.117 214.605L327.116 214.601L328.27 212.784Z" fill="#F9A42D"/>
<path d="M317.582 221.048L316.349 222.13L316.099 219.81H316.097L315.847 222.132L314.612 221.048L315.767 222.869H315.768L316.096 223.386V223.382L316.098 223.386L316.429 222.869V222.865L317.582 221.048Z" fill="#F9A42D"/>
<path d="M328.27 221.048L327.037 222.13L326.787 219.81H326.785L326.535 222.132L325.299 221.048L326.455 222.869H326.456L326.783 223.386V223.382L326.786 223.386L327.117 222.869L327.116 222.865L328.27 221.048Z" fill="#F9A42D"/>
<path d="M322.278 168.321C322.278 168.321 322.463 165.341 321.441 163.382C320.419 165.341 320.604 168.321 320.604 168.321H322.278Z" fill="#3F1715"/>
<path d="M322.578 167.362C322.327 167.774 322.062 167.985 321.796 167.985H321.441H321.086C320.819 167.985 320.555 167.774 320.304 167.362L319.025 165.26L319.816 168.852C320.247 170.811 320.832 171.912 321.442 171.912C322.052 171.912 322.637 170.811 323.068 168.852L323.858 165.26L322.578 167.362Z" fill="#21120D"/>
<path d="M323.185 168.038C322.801 168.389 322.395 168.568 321.986 168.568H321.441H320.896C320.487 168.568 320.082 168.389 319.697 168.038L317.736 166.249L318.948 169.307C319.609 170.975 320.506 171.912 321.44 171.912C322.375 171.912 323.271 170.975 323.932 169.307L325.144 166.249L323.185 168.038Z" fill="#3F1715"/>
<path d="M323.996 168.689C323.433 168.981 322.838 169.13 322.239 169.13H321.441H320.643C320.044 169.13 319.449 168.981 318.886 168.689L316.013 167.2L317.788 169.744C318.757 171.132 320.07 171.912 321.44 171.912C322.81 171.912 324.124 171.132 325.092 169.744L326.868 167.2L323.996 168.689Z" fill="#21120D"/>
<path d="M300.367 176.728C300.367 176.728 300.484 174.833 299.835 173.587C299.185 174.832 299.302 176.728 299.302 176.728H300.367Z" fill="#3F1715"/>
<path d="M300.558 176.118C300.398 176.38 300.23 176.514 300.061 176.514H299.835H299.609C299.439 176.514 299.271 176.38 299.112 176.118L298.299 174.781L298.802 177.065C299.076 178.311 299.448 179.011 299.836 179.011C300.224 179.011 300.596 178.311 300.87 177.065L301.373 174.781L300.558 176.118Z" fill="#21120D"/>
<path d="M300.943 176.548C300.698 176.771 300.441 176.885 300.181 176.885H299.835H299.489C299.229 176.885 298.971 176.771 298.727 176.548L297.48 175.41L298.251 177.354C298.671 178.415 299.241 179.011 299.836 179.011C300.43 179.011 301.001 178.415 301.421 177.354L302.192 175.41L300.943 176.548Z" fill="#3F1715"/>
<path d="M301.459 176.962C301.101 177.148 300.723 177.243 300.342 177.243H299.834H299.327C298.946 177.243 298.568 177.148 298.21 176.962L296.383 176.015L297.512 177.633C298.128 178.516 298.963 179.011 299.834 179.011C300.705 179.011 301.54 178.515 302.156 177.633L303.285 176.015L301.459 176.962Z" fill="#21120D"/>
<path d="M344.172 192.284C344.172 192.284 344.324 189.829 343.482 188.216C342.64 189.829 342.792 192.284 342.792 192.284H344.172Z" fill="#3F1715"/>
<path d="M344.419 191.494C344.212 191.833 343.994 192.007 343.775 192.007H343.482H343.189C342.969 192.007 342.751 191.833 342.545 191.494L341.492 189.763L342.143 192.721C342.498 194.335 342.98 195.241 343.482 195.241C343.984 195.241 344.466 194.334 344.821 192.721L345.472 189.763L344.419 191.494Z" fill="#21120D"/>
<path d="M344.918 192.051C344.601 192.34 344.267 192.488 343.931 192.488H343.482H343.033C342.696 192.488 342.362 192.34 342.045 192.051L340.43 190.577L341.428 193.095C341.972 194.469 342.711 195.241 343.481 195.241C344.251 195.241 344.989 194.469 345.534 193.095L346.532 190.577L344.918 192.051Z" fill="#3F1715"/>
<path d="M345.586 192.587C345.122 192.827 344.633 192.95 344.139 192.95H343.482H342.825C342.332 192.95 341.842 192.827 341.378 192.587L339.012 191.361L340.474 193.457C341.272 194.6 342.354 195.242 343.482 195.242C344.61 195.242 345.692 194.6 346.49 193.457L347.952 191.361L345.586 192.587Z" fill="#21120D"/>
<path d="M216.194 138.216L186.891 129.857L183.273 149.287L193.67 155.145L196.863 170.835L196.952 195.83L200.614 215.793L187.147 213.492L186.685 218.32L184.414 236.91L187.147 240.348L214.64 227.177L224.692 194.332L226.729 172.484L216.194 138.216Z" fill="#421819"/>
<path d="M170.141 170.835L173.299 195.83L176.003 214.335L185.213 218.705L188.614 237.851L163.282 223.754L150.551 194.332L150.428 172.484L159.654 139.824L184.349 131.518L186.634 148.413L180.683 155.274L170.141 170.835Z" fill="#612423"/>
<path d="M126.072 196.529L141.304 195.006L144.941 215.417L129.52 212.76L132.549 237.098L108.589 233.483L106.723 213.719L66.9619 212.411L67.3929 199.479L81.7479 178.038L92.7899 153.897L106.243 131.258L106.864 131.895L131.625 130.944L134.822 163.452L126.072 196.529ZM81.5549 195.304L107.039 195.015L102.894 162.824L105.164 161.594L106.413 166.97L81.5549 195.304Z" fill="#421819"/>
<path d="M142.586 193.284L139.718 209.891L104.039 213.183L65.535 216.242L64.572 198.531L77.723 175.468L89.744 151.868L107.528 130.396L105.334 162.279L85.373 195.223L114.219 198.798L142.586 193.284Z" fill="#612423"/>
<path d="M293.717 196.529L308.949 195.006L312.586 215.417L297.164 212.76L300.193 237.098L276.233 233.483L274.367 213.719L234.606 212.411L235.037 199.479L249.392 178.038L260.434 153.897L273.887 131.258L274.508 131.895L299.269 130.944L302.466 163.452L293.717 196.529ZM249.2 195.304L274.684 195.015L270.539 162.824L272.809 161.594L274.058 166.97L249.2 195.304Z" fill="#421819"/>
<path d="M310.231 193.284L307.362 209.891L271.683 213.183L233.18 216.242L232.217 198.531L245.367 175.468L257.388 151.868L275.172 130.396L272.978 162.279L253.018 195.223L281.864 198.798L310.231 193.284Z" fill="#612423"/>
<path d="M53.2878 132.529C46.8898 132.694 41.8728 138.114 41.8728 144.514V244.69H65.3228V144.25C65.3228 137.672 59.9048 132.359 53.2878 132.529Z" fill="#D3573B"/>
<path d="M53.5979 132.525C49.9209 132.525 46.9409 137.774 46.9409 144.25V244.69H60.2549V144.25C60.2549 137.775 57.2739 132.525 53.5979 132.525Z" fill="#F46640"/>
<path d="M53.598 132.525C52.22 132.525 51.103 137.774 51.103 144.25V244.69H56.094V144.25C56.093 137.775 54.976 132.525 53.598 132.525Z" fill="#F46640"/>
<path d="M48.8069 141.273L47.2769 142.616L46.9659 139.736H46.9639L46.6529 142.619L45.1199 141.273L46.5549 143.533V143.534L46.9619 144.175V144.17L46.9649 144.175L47.3759 143.533L47.3749 143.529L48.8069 141.273Z" fill="#F9A42D"/>
<path d="M62.0759 141.273L60.5449 142.616L60.2349 139.736H60.2319L59.9219 142.619L58.3879 141.273L59.8229 143.533L59.8239 143.534L60.2309 144.175V144.17L60.2339 144.175L60.6439 143.533V143.529L62.0759 141.273Z" fill="#F9A42D"/>
<path d="M55.4419 145.712L53.9109 147.055L53.6009 144.175H53.5979L53.2869 147.058L51.7539 145.712L53.1889 147.972V147.973L53.5959 148.614V148.609L53.5989 148.614L54.0099 147.972V147.968L55.4419 145.712Z" fill="#F9A42D"/>
<path d="M55.4419 156.767L53.9109 158.11L53.6009 155.23H53.5979L53.2869 158.113L51.7539 156.767L53.1889 159.027V159.028L53.5959 159.669V159.664L53.5989 159.669L54.0099 159.027V159.023L55.4419 156.767Z" fill="#F9A42D"/>
<path d="M55.4419 167.822L53.9109 169.165L53.6009 166.285H53.5979L53.2869 169.168L51.7539 167.822L53.1889 170.082V170.083L53.5959 170.724V170.719L53.5989 170.724L54.0099 170.082V170.078L55.4419 167.822Z" fill="#F9A42D"/>
<path d="M48.8069 151.533L47.2769 152.876L46.9659 149.995H46.9639L46.6529 152.878L45.1199 151.533L46.5549 153.793V153.794L46.9619 154.435V154.43L46.9649 154.435L47.3759 153.793L47.3749 153.788L48.8069 151.533Z" fill="#F9A42D"/>
<path d="M62.0759 151.533L60.5449 152.876L60.2349 149.995H60.2319L59.9219 152.878L58.3879 151.533L59.8229 153.793L59.8239 153.794L60.2309 154.435V154.43L60.2339 154.435L60.6439 153.793V153.788L62.0759 151.533Z" fill="#F9A42D"/>
<path d="M48.8069 161.792L47.2769 163.135L46.9659 160.255H46.9639L46.6529 163.138L45.1199 161.792L46.5549 164.052V164.053L46.9619 164.694V164.689L46.9649 164.694L47.3759 164.052L47.3749 164.048L48.8069 161.792Z" fill="#F9A42D"/>
<path d="M62.0759 161.792L60.5449 163.135L60.2349 160.255H60.2319L59.9219 163.138L58.3879 161.792L59.8229 164.052L59.8239 164.053L60.2309 164.694V164.689L60.2339 164.694L60.6439 164.052V164.048L62.0759 161.792Z" fill="#F9A42D"/>
<path d="M32.0879 150.143V146.002C32.0879 143.351 30.1029 140.974 27.4549 140.836C24.6309 140.688 22.2949 142.934 22.2949 145.725V153.661V155.348C22.2949 159.825 25.9239 163.454 30.4009 163.454H32.0879H42.8739V153.662H35.6059C33.6629 153.66 32.0879 152.085 32.0879 150.143Z" fill="#D3573B"/>
<path d="M30.4008 160.042C27.8078 160.042 25.7058 157.94 25.7058 155.347V145.725C25.7058 144.907 26.3718 144.24 27.1918 144.24C28.0358 144.282 28.6768 145.088 28.6768 146.002V153.469C28.6768 155.458 30.2898 157.071 32.2788 157.071H41.8728V160.041L30.4008 160.042Z" fill="#F46640"/>
<path d="M32.3049 158.6L30.7739 159.944L30.4639 157.063H30.4609L30.1509 159.946L28.6169 158.6L30.0519 160.86L30.0529 160.861L30.4599 161.502V161.498L30.4629 161.502L30.8729 160.86V160.856L32.3049 158.6Z" fill="#F9A42D"/>
<path d="M27.5508 151.533L26.0198 152.876L25.7098 149.995H25.7068L25.3958 152.878L23.8628 151.533L25.2978 153.793V153.794L25.7048 154.435V154.43L25.7078 154.435L26.1188 153.793L26.1178 153.788L27.5508 151.533Z" fill="#F9A42D"/>
<path d="M30.4609 145.241L28.9309 146.584L28.6199 143.704H28.6179L28.3069 146.586L26.7739 145.241L28.2079 147.501L28.2089 147.502L28.6159 148.143V148.138L28.6189 148.143L29.0299 147.501L29.0289 147.497L30.4609 145.241Z" fill="#F9A42D"/>
<path d="M39.4339 158.6L37.9028 159.944L37.5928 157.063H37.5899L37.2798 159.946L35.7458 158.6L37.1808 160.86V160.861L37.5879 161.502V161.498L37.5909 161.502L38.0018 160.86V160.856L39.4339 158.6Z" fill="#F9A42D"/>
<path d="M76.109 204.896V200.755C76.109 198.104 78.095 195.727 80.742 195.589C83.566 195.441 85.902 197.687 85.902 200.478V208.414V210.101C85.902 214.578 82.273 218.207 77.796 218.207H76.109H65.323V208.414H72.591C74.534 208.414 76.109 206.839 76.109 204.896Z" fill="#D3573B"/>
<path d="M77.796 214.795C80.389 214.795 82.491 212.693 82.491 210.1V200.478C82.491 199.66 81.825 198.993 81.005 198.993C80.161 199.035 79.52 199.841 79.52 200.755V208.222C79.52 210.211 77.907 211.824 75.918 211.824H65.323V214.794L77.796 214.795Z" fill="#F46640"/>
<path d="M75.8921 213.353L77.4231 214.697L77.7331 211.816H77.7361L78.0461 214.699L79.5801 213.353L78.1451 215.614L77.7381 216.255V216.251L77.7351 216.255L77.3241 215.614V215.609L75.8921 213.353Z" fill="#F9A42D"/>
<path d="M80.647 206.286L82.177 207.629L82.487 204.749H82.49L82.801 207.631L84.334 206.286L82.899 208.546V208.547L82.492 209.188V209.183L82.489 209.188L82.078 208.546L82.079 208.542L80.647 206.286Z" fill="#F9A42D"/>
<path d="M77.7361 199.994L79.2671 201.337L79.5771 198.457H79.5801L79.8901 201.34L81.4231 199.994L79.9891 202.254L79.9881 202.255L79.5811 202.896V202.891L79.5781 202.896L79.1681 202.254V202.25L77.7361 199.994Z" fill="#F9A42D"/>
<path d="M68.7629 213.353L70.2939 214.697L70.6039 211.816H70.6069L70.9179 214.699L72.4509 213.353L71.0159 215.614L70.6089 216.255V216.251L70.6059 216.255L70.1949 215.614L70.1959 215.609L68.7629 213.353Z" fill="#F9A42D"/>
<path d="M48.8069 173.483L47.2769 174.827L46.9659 171.946H46.9639L46.6529 174.829L45.1199 173.483L46.5549 175.744V175.745L46.9619 176.386V176.381L46.9649 176.386L47.3759 175.744L47.3749 175.74L48.8069 173.483Z" fill="#F9A42D"/>
<path d="M62.0759 173.483L60.5449 174.827L60.2349 171.946H60.2319L59.9219 174.829L58.3879 173.483L59.8229 175.744L59.8239 175.745L60.2309 176.386V176.381L60.2339 176.386L60.6439 175.744V175.74L62.0759 173.483Z" fill="#F9A42D"/>
<path d="M55.4419 177.923L53.9109 179.266L53.6009 176.386H53.5979L53.2869 179.268L51.7539 177.923L53.1889 180.183V180.184L53.5959 180.825V180.82L53.5989 180.825L54.0099 180.183V180.179L55.4419 177.923Z" fill="#F9A42D"/>
<path d="M55.4419 188.977L53.9109 190.321L53.6009 187.44H53.5979L53.2869 190.323L51.7539 188.977L53.1889 191.238L53.5959 191.88V191.875L53.5989 191.88L54.0099 191.238V191.234L55.4419 188.977Z" fill="#F9A42D"/>
<path d="M55.4419 200.032L53.9109 201.376L53.6009 198.495H53.5979L53.2869 201.378L51.7539 200.032L53.1889 202.292V202.293L53.5959 202.935V202.93L53.5989 202.935L54.0099 202.292V202.288L55.4419 200.032Z" fill="#F9A42D"/>
<path d="M48.8069 183.743L47.2769 185.086L46.9659 182.206H46.9639L46.6529 185.089L45.1199 183.743L46.5549 186.003V186.004L46.9619 186.645V186.64L46.9649 186.645L47.3759 186.003L47.3749 185.999L48.8069 183.743Z" fill="#F9A42D"/>
<path d="M62.0759 183.743L60.5449 185.086L60.2349 182.206H60.2319L59.9219 185.089L58.3879 183.743L59.8229 186.003L59.8239 186.004L60.2309 186.645V186.64L60.2339 186.645L60.6439 186.003V185.999L62.0759 183.743Z" fill="#F9A42D"/>
<path d="M48.8069 194.003L47.2769 195.346L46.9659 192.466H46.9639L46.6529 195.348L45.1199 194.003L46.5549 196.263V196.264L46.9619 196.905V196.9L46.9649 196.905L47.3759 196.263L47.3749 196.259L48.8069 194.003Z" fill="#F9A42D"/>
<path d="M62.0759 194.003L60.5449 195.346L60.2349 192.466H60.2319L59.9219 195.348L58.3879 194.003L59.8229 196.263L59.8239 196.264L60.2309 196.905V196.9L60.2339 196.905L60.6439 196.263V196.259L62.0759 194.003Z" fill="#F9A42D"/>
<path d="M48.8069 206.326L47.2769 207.669L46.9659 204.789H46.9639L46.6529 207.672L45.1199 206.326L46.5549 208.586V208.587L46.9619 209.228V209.223L46.9649 209.228L47.3759 208.586L47.3749 208.582L48.8069 206.326Z" fill="#F9A42D"/>
<path d="M62.0759 206.326L60.5449 207.669L60.2349 204.789H60.2319L59.9219 207.672L58.3879 206.326L59.8229 208.586L59.8239 208.587L60.2309 209.228V209.223L60.2339 209.228L60.6439 208.586V208.582L62.0759 206.326Z" fill="#F9A42D"/>
<path d="M55.4419 210.765L53.9109 212.108L53.6009 209.228H53.5979L53.2869 212.111L51.7539 210.765L53.1889 213.025V213.026L53.5959 213.667V213.662L53.5989 213.667L54.0099 213.025V213.021L55.4419 210.765Z" fill="#F9A42D"/>
<path d="M55.4419 221.82L53.9109 223.163L53.6009 220.283H53.5979L53.2869 223.166L51.7539 221.82L53.1889 224.08V224.081L53.5959 224.722V224.717L53.5989 224.722L54.0099 224.08V224.076L55.4419 221.82Z" fill="#F9A42D"/>
<path d="M55.4419 232.875L53.9109 234.218L53.6009 231.338H53.5979L53.2869 234.221L51.7539 232.875L53.1889 235.135V235.136L53.5959 235.777V235.772L53.5989 235.777L54.0099 235.135V235.131L55.4419 232.875Z" fill="#F9A42D"/>
<path d="M48.8069 216.585L47.2769 217.929L46.9659 215.048H46.9639L46.6529 217.931L45.1199 216.585L46.5549 218.846V218.847L46.9619 219.488V219.483L46.9649 219.488L47.3759 218.846L47.3749 218.842L48.8069 216.585Z" fill="#F9A42D"/>
<path d="M62.0759 216.585L60.5449 217.929L60.2349 215.048H60.2319L59.9219 217.931L58.3879 216.585L59.8229 218.846L59.8239 218.847L60.2309 219.488V219.483L60.2339 219.488L60.6439 218.846V218.842L62.0759 216.585Z" fill="#F9A42D"/>
<path d="M48.8069 226.845L47.2769 228.188L46.9659 225.308H46.9639L46.6529 228.191L45.1199 226.845L46.5549 229.105V229.106L46.9619 229.747V229.742L46.9649 229.747L47.3759 229.105L47.3749 229.101L48.8069 226.845Z" fill="#F9A42D"/>
<path d="M62.0759 226.845L60.5449 228.188L60.2349 225.308H60.2319L59.9219 228.191L58.3879 226.845L59.8229 229.105L59.8239 229.106L60.2309 229.747V229.742L60.2339 229.747L60.6439 229.105V229.101L62.0759 226.845Z" fill="#F9A42D"/>
<path d="M54.6379 128.543C54.6379 128.543 54.8669 124.843 53.5979 122.411C52.3289 124.843 52.5579 128.543 52.5579 128.543H54.6379Z" fill="#3F1715"/>
<path d="M55.0099 127.352C54.6989 127.864 54.3699 128.125 54.0389 128.125H53.5979H53.1569C52.8259 128.125 52.4969 127.863 52.1859 127.352L50.5979 124.743L51.5789 129.202C52.1139 131.634 52.8409 133.001 53.5979 133.001C54.3549 133.001 55.0809 131.634 55.6169 129.202L56.5989 124.743L55.0099 127.352Z" fill="#21120D"/>
<path d="M55.7628 128.192C55.2858 128.628 54.7818 128.85 54.2738 128.85H53.5978H52.9218C52.4138 128.85 51.9108 128.627 51.4338 128.192L48.9998 125.97L50.5038 129.766C51.3248 131.837 52.4378 133 53.5978 133C54.7578 133 55.8718 131.836 56.6918 129.766L58.1958 125.97L55.7628 128.192Z" fill="#3F1715"/>
<path d="M56.7699 128.999C56.0709 129.362 55.3329 129.547 54.5889 129.547H53.5979H52.6069C51.8629 129.547 51.1249 129.362 50.4259 128.999L46.8599 127.151L49.0639 130.31C50.2669 132.033 51.8969 133.001 53.5979 133.001C55.2989 133.001 56.9299 132.033 58.1319 130.31L60.3359 127.151L56.7699 128.999Z" fill="#21120D"/>
<path d="M27.4351 138.98C27.4351 138.98 27.5811 136.627 26.7741 135.081C25.9671 136.627 26.1131 138.98 26.1131 138.98H27.4351Z" fill="#3F1715"/>
<path d="M27.672 138.223C27.474 138.548 27.265 138.715 27.055 138.715H26.774H26.493C26.282 138.715 26.073 138.549 25.875 138.223L24.865 136.564L25.489 139.399C25.829 140.946 26.291 141.815 26.773 141.815C27.255 141.815 27.716 140.946 28.057 139.399L28.681 136.564L27.672 138.223Z" fill="#21120D"/>
<path d="M28.1501 138.757C27.8461 139.034 27.5261 139.176 27.2031 139.176H26.7731H26.3431C26.0201 139.176 25.7001 139.034 25.3971 138.757L23.8491 137.344L24.8061 139.758C25.3281 141.075 26.0361 141.815 26.7741 141.815C27.5121 141.815 28.2201 141.075 28.7421 139.758L29.6991 137.344L28.1501 138.757Z" fill="#3F1715"/>
<path d="M28.791 139.27C28.346 139.5 27.877 139.618 27.404 139.618H26.774H26.144C25.671 139.618 25.202 139.5 24.757 139.27L22.489 138.095L23.891 140.103C24.656 141.199 25.693 141.814 26.774 141.814C27.855 141.814 28.892 141.198 29.657 140.103L31.059 138.095L28.791 139.27Z" fill="#21120D"/>
<path d="M81.8179 192.713C81.8179 192.713 82.0069 189.665 80.9619 187.663C79.9169 189.666 80.1059 192.713 80.1059 192.713H81.8179Z" fill="#3F1715"/>
<path d="M82.1248 191.733C81.8688 192.154 81.5978 192.37 81.3248 192.37H80.9608H80.5977C80.3247 192.37 80.0547 192.155 79.7977 191.733L78.4897 189.584L79.2977 193.256C79.7387 195.259 80.3368 196.385 80.9608 196.385C81.5848 196.385 82.1827 195.26 82.6237 193.256L83.4317 189.584L82.1248 191.733Z" fill="#21120D"/>
<path d="M82.7448 192.424C82.3518 192.783 81.9368 192.966 81.5188 192.966H80.9618H80.4048C79.9868 192.966 79.5718 192.782 79.1788 192.424L77.1738 190.594L78.4128 193.721C79.0888 195.427 80.0058 196.385 80.9608 196.385C81.9168 196.385 82.8338 195.427 83.5098 193.721L84.7488 190.594L82.7448 192.424Z" fill="#3F1715"/>
<path d="M83.5738 193.089C82.9978 193.388 82.3898 193.54 81.7778 193.54H80.9618H80.1458C79.5328 193.54 78.9258 193.387 78.3498 193.089L75.4128 191.567L77.2288 194.169C78.2188 195.588 79.5628 196.385 80.9628 196.385C82.3638 196.385 83.7068 195.588 84.6968 194.169L86.5118 191.567L83.5738 193.089Z" fill="#21120D"/>
<path d="M364.3 231.339C363.622 231.339 352.137 248.904 350.967 250.58C345.088 259.003 333.364 260.321 324.365 265.274C317.508 269.048 312.133 275.085 307.876 281.652C302.255 290.324 297.667 300.743 288.256 305.014C280.709 308.439 271.776 306.918 264.14 303.698C251.407 298.329 242.12 292.024 228.102 290.22C214.685 288.493 200.774 290.334 188.346 295.708C175.912 301.085 163.084 310.032 150.11 306.169C133.676 301.269 126.987 278.127 110.048 275.512C97.8439 273.622 86.8329 283.642 74.5189 284.541C62.5349 285.422 51.5879 277.475 43.9449 268.208C36.3009 258.94 30.7319 248.021 22.4549 239.313C19.4539 236.166 16.2519 233.578 12.8569 231.339C12.8549 231.339 362.753 231.339 364.3 231.339Z" fill="#EE9730"/>
<path d="M364.303 231.338C363.625 231.338 352.136 248.902 350.965 250.584C345.091 259.002 333.368 260.324 324.364 265.278C317.511 269.052 312.13 275.085 307.88 281.654C302.257 290.323 297.671 300.741 288.258 305.017C280.71 308.439 271.782 306.916 264.142 303.695C251.406 298.331 242.118 292.022 228.102 290.223C214.688 288.491 200.773 290.332 188.347 295.712C175.912 301.084 163.085 310.038 150.115 306.172C133.681 301.268 126.986 278.132 110.05 275.512C97.8499 273.621 86.8379 283.646 74.5199 284.541C62.5369 285.42 51.5919 277.479 43.9439 268.207C36.3039 258.944 30.7309 248.024 22.4559 239.313C19.4519 236.167 16.2549 233.581 12.8579 231.339C12.8579 231.339 22.2969 231.339 38.0779 231.339C39.9439 234.025 41.8689 236.669 43.9439 239.188C51.5919 248.451 62.5369 256.4 74.5199 255.522C86.8369 254.618 97.8489 244.602 110.05 246.485C126.986 249.104 133.681 272.249 150.115 277.145C163.085 281.011 175.913 272.066 188.347 266.685C200.773 261.313 214.689 259.472 228.102 261.196C242.118 263.003 251.406 269.304 264.142 274.676C271.782 277.897 280.71 279.412 288.258 275.99C297.672 271.722 302.257 261.304 307.88 252.627C312.131 246.058 317.511 240.025 324.364 236.251C327.987 234.26 332.037 232.862 335.987 231.339L364.303 231.338Z" fill="#F9A42D"/>
<path d="M193.836 72.6192H265.799C265.525 65.6762 259.814 60.1392 252.807 60.1392H252.804C249.926 53.6402 243.428 49.1032 235.864 49.1032C226.773 49.1032 219.218 55.6552 217.648 64.2912C217.321 64.2552 216.989 64.2322 216.651 64.2322C213.72 64.2322 211.119 65.6512 209.496 67.8362C208.94 67.6992 208.359 67.6242 207.761 67.6242C205.64 67.6242 203.738 68.5382 202.416 69.9912C201.533 69.5302 200.527 69.2672 199.463 69.2672C197.032 69.2672 194.917 70.6222 193.836 72.6192Z" fill="#FAFBED"/>
<path d="M281.436 73.6302H184.881C184.525 73.6302 184.236 73.3412 184.236 72.9852C184.236 72.6292 184.525 72.3402 184.881 72.3402H281.436C281.792 72.3402 282.081 72.6292 282.081 72.9852C282.082 73.3412 281.793 73.6302 281.436 73.6302Z" fill="#FAFBED"/>
<path d="M210.226 77.2622H174.823C174.467 77.2622 174.178 76.9732 174.178 76.6172C174.178 76.2612 174.467 75.9722 174.823 75.9722H210.226C210.582 75.9722 210.871 76.2612 210.871 76.6172C210.871 76.9742 210.583 77.2622 210.226 77.2622Z" fill="#FAFBED"/>
<path d="M251.649 77.2622H232.206C231.85 77.2622 231.561 76.9732 231.561 76.6172C231.561 76.2612 231.85 75.9722 232.206 75.9722H251.649C252.005 75.9722 252.294 76.2612 252.294 76.6172C252.294 76.9742 252.005 77.2622 251.649 77.2622Z" fill="#FAFBED"/>
<path d="M159.08 109.502H98.449C98.68 103.652 103.491 98.9872 109.395 98.9872H109.397C111.822 93.5122 117.297 89.6892 123.669 89.6892C131.329 89.6892 137.694 95.2092 139.017 102.485C139.292 102.454 139.573 102.436 139.857 102.436C142.326 102.436 144.518 103.632 145.886 105.473C146.354 105.358 146.844 105.294 147.348 105.294C149.135 105.294 150.738 106.064 151.851 107.288C152.595 106.9 153.442 106.678 154.339 106.678C156.388 106.677 158.17 107.819 159.08 109.502Z" fill="#FAFBED"/>
<path d="M85.275 110.354H166.625C166.925 110.354 167.169 110.111 167.169 109.81C167.169 109.51 166.926 109.266 166.625 109.266H85.275C84.975 109.266 84.731 109.509 84.731 109.81C84.731 110.111 84.975 110.354 85.275 110.354Z" fill="#FAFBED"/>
<path d="M145.271 113.414H175.099C175.399 113.414 175.643 113.171 175.643 112.87C175.643 112.57 175.4 112.326 175.099 112.326H145.271C144.971 112.326 144.727 112.569 144.727 112.87C144.728 113.171 144.971 113.414 145.271 113.414Z" fill="#FAFBED"/>
<path d="M110.371 113.414H126.752C127.052 113.414 127.296 113.171 127.296 112.87C127.296 112.57 127.053 112.326 126.752 112.326H110.371C110.071 112.326 109.827 112.569 109.827 112.87C109.828 113.171 110.071 113.414 110.371 113.414Z" fill="#FAFBED"/>
</svg>
